<svg aria-label="Flowchart showing Input to Prediction to Cost, then Backpropagation computing gradients, Gradient Descent updating weights, and repeating the cycle." data-d-component="svg" fill="currentColor" role="img" style="color:rgb(13, 13, 13)" viewBox="0 0 320 280" xmlns="http://www.w3.org/2000/svg"><defs><marker id="arrow" markerWidth="10" markerHeight="10" refX="9" refY="3" orient="auto"><path d="M0,0 L10,3 L0,6 Z" fill="#64748B"/></marker></defs><rect width="320" height="280" rx="12" fill="#FFFFFF" stroke="#E5E7EB"/><rect x="78" y="18" width="164" height="24" rx="12" fill="#DBEAFE" stroke="#D1D5DB"/><text x="160" y="34" font-size="9" text-anchor="middle" font-family="Arial, Helvetica, sans-serif" fill="#111827">Input (X)</text><rect x="78" y="52" width="164" height="24" rx="12" fill="#E9D5FF" stroke="#D1D5DB"/><text x="160" y="68" font-size="9" text-anchor="middle" font-family="Arial, Helvetica, sans-serif" fill="#111827">Prediction (ŷ)</text><rect x="78" y="86" width="164" height="24" rx="12" fill="#FDE68A" stroke="#D1D5DB"/><text x="160" y="102" font-size="9" text-anchor="middle" font-family="Arial, Helvetica, sans-serif" fill="#111827">Cost / Loss</text><rect x="78" y="128" width="164" height="24" rx="12" fill="#FCA5A5" stroke="#D1D5DB"/><text x="160" y="144" font-size="9" text-anchor="middle" font-family="Arial, Helvetica, sans-serif" fill="#111827">Backpropagation</text><rect x="78" y="170" width="164" height="24" rx="12" fill="#FBCFE8" stroke="#D1D5DB"/><text x="160" y="186" font-size="9" text-anchor="middle" font-family="Arial, Helvetica, sans-serif" fill="#111827">Gradients (∂J/∂w)</text><rect x="78" y="204" width="164" height="24" rx="12" fill="#A7F3D0" stroke="#D1D5DB"/><text x="160" y="220" font-size="9" text-anchor="middle" font-family="Arial, Helvetica, sans-serif" fill="#111827">Gradient Descent</text><rect x="78" y="238" width="164" height="24" rx="12" fill="#D1FAE5" stroke="#D1D5DB"/><text x="160" y="254" font-size="9" text-anchor="middle" font-family="Arial, Helvetica, sans-serif" fill="#111827">Updated Weights</text><line x1="160" y1="42" x2="160" y2="52" stroke="#64748B" stroke-width="1.5" marker-end="url(#arrow)"/><line x1="160" y1="76" x2="160" y2="86" stroke="#64748B" stroke-width="1.5" marker-end="url(#arrow)"/><line x1="160" y1="110" x2="160" y2="120" stroke="#64748B" stroke-width="1.5" marker-end="url(#arrow)"/><line x1="160" y1="152" x2="160" y2="162" stroke="#64748B" stroke-width="1.5" marker-end="url(#arrow)"/><line x1="160" y1="194" x2="160" y2="204" stroke="#64748B" stroke-width="1.5" marker-end="url(#arrow)"/><line x1="160" y1="228" x2="160" y2="238" stroke="#64748B" stroke-width="1.5" marker-end="url(#arrow)"/><path d="M78 250 C40 250,20 250,20 30 C20 18,48 18,78 18" fill="none" stroke="#059669" stroke-width="1.5" stroke-dasharray="4 4" marker-end="url(#arrow)"/><text x="26" y="140" font-size="8" font-family="Arial, Helvetica, sans-serif" fill="#059669" transform="rotate(-90 26 140)">Repeat</text></svg>